# xmcd
#
# Track frame offsets:
#	150
#	15957
#	32970
#	47947
#	62526
#	77860
#	93792
#	117851
#	134203
#	149898
#	166615
#	182893
#	199067
#	224534
#	240980
#
# Disc length: 3419 seconds
#
# Revision: 1
# Processed by: cddbd v1.5.2PL0 Copyright (c) Steve Scherf et al.
# Submitted via: audiograbber 1.83.01
#
DISCID=d60d590f
DTITLE=JonesTM - HC200731
DYEAR=2007
DGENRE=Country
TTITLE0=Heartland - Once A Woman...
TTITLE1=Carrie Underwood - So Small
TTITLE2=John Berry - A Woman Like You
TTITLE3=Adkins, Trace - I Got My Game On
TTITLE4=Jason Aldean - Laughed Until We Cried
TTITLE5=Billy Ray Cyrus - Ready, Set, Don't Go [Single Version]
TTITLE6=Clark Sisters - Livin' [Live]
TTITLE7=Karizz - Pretty Eyez [Radio Edit]
TTITLE8=Trey Songz - Can't Help But Wait [Album Version]
TTITLE9=Rihanna Feat. Ne-Yo - Hate That I Love You [Radio Edit]
TTITLE10=Sunshine Anderson - Wear The Crown
TTITLE11=Jimmy Sommers Feat. Paul Brown - Happy Hour [Radio Edit]
TTITLE12=Gene Burkert - Starlight Strut [Album Version]
TTITLE13=Danny Lerman - Gotcha! [Radio Edit]
TTITLE14=Jeff Lorber - He Had A Hat
EXTD=
EXTT0=
EXTT1=
EXTT2=
EXTT3=
EXTT4=
EXTT5=
EXTT6=
EXTT7=
EXTT8=
EXTT9=
EXTT10=
EXTT11=
EXTT12=
EXTT13=
EXTT14=
PLAYORDER=
